<svg width="122" height="37" viewBox="0 0 122 37" fill="none" xmlns="http://www.w3.org/2000/svg">
<rect x="5.58789" y="5.08337" width="111.476" height="26.553" stroke="#706FE5" stroke-width="4"/>
<mask id="path-2-inside-1_4047_3837" fill="white">
<ellipse cx="4.56684" cy="33.0757" rx="4.56684" ry="3.92424"/>
</mask>
<ellipse cx="4.56684" cy="33.0757" rx="4.56684" ry="3.92424" fill="white"/>
<path d="M5.13369 33.0757C5.13369 32.9775 5.159 32.8916 5.186 32.8367C5.21012 32.7877 5.22278 32.7879 5.18917 32.8168C5.11529 32.8803 4.90768 33 4.56684 33V41C8.70749 41 13.1337 37.9998 13.1337 33.0757H5.13369ZM4.56684 33C4.226 33 4.0184 32.8803 3.94452 32.8168C3.9109 32.7879 3.92357 32.7877 3.94768 32.8367C3.97469 32.8916 4 32.9775 4 33.0757H-4C-4 37.9998 0.426197 41 4.56684 41V33ZM4 33.0757C4 33.174 3.97469 33.2599 3.94768 33.3147C3.92357 33.3637 3.9109 33.3636 3.94452 33.3347C4.0184 33.2712 4.226 33.1515 4.56684 33.1515V25.1515C0.426197 25.1515 -4 28.1516 -4 33.0757H4ZM4.56684 33.1515C4.90768 33.1515 5.11529 33.2712 5.18917 33.3347C5.22278 33.3636 5.21012 33.3637 5.186 33.3147C5.159 33.2599 5.13369 33.174 5.13369 33.0757H13.1337C13.1337 28.1516 8.70749 25.1515 4.56684 25.1515V33.1515Z" fill="#706FE5" mask="url(#path-2-inside-1_4047_3837)"/>
<mask id="path-4-inside-2_4047_3837" fill="white">
<ellipse cx="117.433" cy="33.0757" rx="4.56684" ry="3.92424"/>
</mask>
<ellipse cx="117.433" cy="33.0757" rx="4.56684" ry="3.92424" fill="white"/>
<path d="M118 33.0757C118 32.9775 118.025 32.8916 118.052 32.8367C118.076 32.7877 118.089 32.7879 118.055 32.8168C117.981 32.8803 117.774 33 117.433 33V41C121.574 41 126 37.9998 126 33.0757H118ZM117.433 33C117.092 33 116.885 32.8803 116.811 32.8168C116.777 32.7879 116.79 32.7877 116.814 32.8367C116.841 32.8916 116.866 32.9775 116.866 33.0757H108.866C108.866 37.9998 113.292 41 117.433 41V33ZM116.866 33.0757C116.866 33.174 116.841 33.2599 116.814 33.3147C116.79 33.3637 116.777 33.3636 116.811 33.3347C116.885 33.2712 117.092 33.1515 117.433 33.1515V25.1515C113.292 25.1515 108.866 28.1516 108.866 33.0757H116.866ZM117.433 33.1515C117.774 33.1515 117.981 33.2712 118.055 33.3347C118.089 33.3636 118.076 33.3637 118.052 33.3147C118.025 33.2599 118 33.174 118 33.0757H126C126 28.1516 121.574 25.1515 117.433 25.1515V33.1515Z" fill="#706FE5" mask="url(#path-4-inside-2_4047_3837)"/>
<mask id="path-6-inside-3_4047_3837" fill="white">
<ellipse cx="4.56684" cy="3.92424" rx="4.56684" ry="3.92424"/>
</mask>
<ellipse cx="4.56684" cy="3.92424" rx="4.56684" ry="3.92424" fill="white"/>
<path d="M5.13369 3.92424C5.13369 3.82601 5.159 3.7401 5.186 3.68524C5.21012 3.63625 5.22278 3.63641 5.18917 3.6653C5.11529 3.72878 4.90768 3.84848 4.56684 3.84848V11.8485C8.70749 11.8485 13.1337 8.84836 13.1337 3.92424H5.13369ZM4.56684 3.84848C4.226 3.84848 4.0184 3.72878 3.94452 3.6653C3.9109 3.63641 3.92357 3.63625 3.94768 3.68524C3.97469 3.7401 4 3.82601 4 3.92424H-4C-4 8.84836 0.426197 11.8485 4.56684 11.8485V3.84848ZM4 3.92424C4 4.02248 3.97469 4.10839 3.94768 4.16325C3.92357 4.21224 3.9109 4.21207 3.94452 4.18319C4.0184 4.1197 4.226 4 4.56684 4V-4C0.426197 -4 -4 -0.999872 -4 3.92424H4ZM4.56684 4C4.90768 4 5.11529 4.1197 5.18917 4.18319C5.22278 4.21207 5.21012 4.21224 5.186 4.16325C5.159 4.10839 5.13369 4.02248 5.13369 3.92424H13.1337C13.1337 -0.999872 8.70749 -4 4.56684 -4V4Z" fill="#706FE5" mask="url(#path-6-inside-3_4047_3837)"/>
<mask id="path-8-inside-4_4047_3837" fill="white">
<ellipse cx="117.433" cy="3.92424" rx="4.56684" ry="3.92424"/>
</mask>
<ellipse cx="117.433" cy="3.92424" rx="4.56684" ry="3.92424" fill="white"/>
<path d="M118 3.92424C118 3.82601 118.025 3.7401 118.052 3.68524C118.076 3.63625 118.089 3.63641 118.055 3.6653C117.981 3.72878 117.774 3.84848 117.433 3.84848V11.8485C121.574 11.8485 126 8.84836 126 3.92424H118ZM117.433 3.84848C117.092 3.84848 116.885 3.72878 116.811 3.6653C116.777 3.63641 116.79 3.63625 116.814 3.68524C116.841 3.7401 116.866 3.82601 116.866 3.92424H108.866C108.866 8.84836 113.292 11.8485 117.433 11.8485V3.84848ZM116.866 3.92424C116.866 4.02248 116.841 4.10839 116.814 4.16325C116.79 4.21224 116.777 4.21207 116.811 4.18319C116.885 4.1197 117.092 4 117.433 4V-4C113.292 -4 108.866 -0.999872 108.866 3.92424H116.866ZM117.433 4C117.774 4 117.981 4.1197 118.055 4.18319C118.089 4.21207 118.076 4.21224 118.052 4.16325C118.025 4.10839 118 4.02248 118 3.92424H126C126 -0.999872 121.574 -4 117.433 -4V4Z" fill="#706FE5" mask="url(#path-8-inside-4_4047_3837)"/>
</svg>
