<svg width="89" height="19" viewBox="0 0 89 19" fill="none" xmlns="http://www.w3.org/2000/svg">
<path d="M12.2422 7.98047V10.5117H3.26562V7.98047H12.2422ZM4.14453 0.9375V18H0.921875V0.9375H4.14453ZM14.6328 0.9375V18H11.4102V0.9375H14.6328ZM24.6641 15.3047V9.45703C24.6641 9.02734 24.5898 8.65625 24.4414 8.34375C24.293 8.03125 24.0664 7.78906 23.7617 7.61719C23.457 7.44531 23.0703 7.35938 22.6016 7.35938C22.1875 7.35938 21.8242 7.42969 21.5117 7.57031C21.207 7.71094 20.9727 7.91016 20.8086 8.16797C20.6445 8.41797 20.5625 8.70703 20.5625 9.03516H17.457C17.457 8.51172 17.582 8.01562 17.832 7.54688C18.082 7.07031 18.4375 6.64844 18.8984 6.28125C19.3672 5.90625 19.9258 5.61328 20.5742 5.40234C21.2305 5.19141 21.9648 5.08594 22.7773 5.08594C23.7383 5.08594 24.5938 5.25 25.3438 5.57812C26.1016 5.89844 26.6953 6.38281 27.125 7.03125C27.5625 7.67969 27.7812 8.49609 27.7812 9.48047V15.0117C27.7812 15.6445 27.8203 16.1875 27.8984 16.6406C27.9844 17.0859 28.1094 17.4727 28.2734 17.8008V18H25.1211C24.9727 17.6797 24.8594 17.2734 24.7812 16.7812C24.7031 16.2812 24.6641 15.7891 24.6641 15.3047ZM25.0977 10.2773L25.1211 12.1172H23.1641C22.6797 12.1172 22.2539 12.168 21.8867 12.2695C21.5195 12.3633 21.2188 12.5039 20.9844 12.6914C20.75 12.8711 20.5742 13.0898 20.457 13.3477C20.3398 13.5977 20.2812 13.8828 20.2812 14.2031C20.2812 14.5156 20.3516 14.7969 20.4922 15.0469C20.6406 15.2969 20.8516 15.4961 21.125 15.6445C21.4062 15.7852 21.7344 15.8555 22.1094 15.8555C22.6562 15.8555 23.1328 15.7461 23.5391 15.5273C23.9453 15.3008 24.2617 15.0273 24.4883 14.707C24.7148 14.3867 24.8359 14.082 24.8516 13.793L25.7422 15.1289C25.6328 15.4492 25.4688 15.7891 25.25 16.1484C25.0312 16.5078 24.75 16.8438 24.4062 17.1562C24.0625 17.4688 23.6484 17.7266 23.1641 17.9297C22.6797 18.1328 22.1172 18.2344 21.4766 18.2344C20.6562 18.2344 19.9219 18.0703 19.2734 17.7422C18.625 17.4141 18.1133 16.9648 17.7383 16.3945C17.3633 15.8242 17.1758 15.1758 17.1758 14.4492C17.1758 13.7773 17.3008 13.1836 17.5508 12.668C17.8008 12.1523 18.1719 11.7188 18.6641 11.3672C19.1562 11.0078 19.7656 10.7383 20.4922 10.5586C21.2266 10.3711 22.0664 10.2773 23.0117 10.2773H25.0977ZM38.1172 14.9883V5.32031H41.2344V18H38.3047L38.1172 14.9883ZM38.5156 12.3633L39.4766 12.3398C39.4766 13.1914 39.3828 13.9766 39.1953 14.6953C39.0078 15.4141 38.7148 16.0391 38.3164 16.5703C37.9258 17.0938 37.4297 17.5039 36.8281 17.8008C36.2266 18.0898 35.5156 18.2344 34.6953 18.2344C34.0703 18.2344 33.5 18.1484 32.9844 17.9766C32.4688 17.7969 32.0234 17.5195 31.6484 17.1445C31.2812 16.7617 30.9961 16.2734 30.793 15.6797C30.5898 15.0781 30.4883 14.3555 30.4883 13.5117V5.32031H33.582V13.5352C33.582 13.957 33.6289 14.3086 33.7227 14.5898C33.8242 14.8711 33.9609 15.1016 34.1328 15.2812C34.3125 15.4531 34.5195 15.5781 34.7539 15.6562C34.9961 15.7266 35.2539 15.7617 35.5273 15.7617C36.2773 15.7617 36.8672 15.6133 37.2969 15.3164C37.7344 15.0117 38.0469 14.6055 38.2344 14.0977C38.4219 13.582 38.5156 13.0039 38.5156 12.3633ZM50.9492 14.5312C50.9492 14.2656 50.8789 14.0273 50.7383 13.8164C50.5977 13.6055 50.332 13.4141 49.9414 13.2422C49.5586 13.0625 48.9961 12.8945 48.2539 12.7383C47.5977 12.5977 46.9922 12.4219 46.4375 12.2109C45.8828 12 45.4062 11.7461 45.0078 11.4492C44.6094 11.1445 44.2969 10.7891 44.0703 10.3828C43.8516 9.96875 43.7422 9.49219 43.7422 8.95312C43.7422 8.42969 43.8555 7.9375 44.082 7.47656C44.3086 7.00781 44.6367 6.59766 45.0664 6.24609C45.4961 5.88672 46.0195 5.60547 46.6367 5.40234C47.2539 5.19141 47.9492 5.08594 48.7227 5.08594C49.8008 5.08594 50.7266 5.26172 51.5 5.61328C52.2812 5.96484 52.8789 6.44922 53.293 7.06641C53.707 7.67578 53.9141 8.36328 53.9141 9.12891H50.8203C50.8203 8.79297 50.7422 8.48828 50.5859 8.21484C50.4375 7.94141 50.207 7.72266 49.8945 7.55859C49.582 7.38672 49.1875 7.30078 48.7109 7.30078C48.2812 7.30078 47.918 7.37109 47.6211 7.51172C47.332 7.65234 47.1133 7.83594 46.9648 8.0625C46.8164 8.28906 46.7422 8.53906 46.7422 8.8125C46.7422 9.01562 46.7812 9.19922 46.8594 9.36328C46.9453 9.51953 47.082 9.66406 47.2695 9.79688C47.457 9.92969 47.7109 10.0508 48.0312 10.1602C48.3594 10.2695 48.7617 10.375 49.2383 10.4766C50.1836 10.6641 51.0078 10.9141 51.7109 11.2266C52.4219 11.5312 52.9766 11.9375 53.375 12.4453C53.7734 12.9531 53.9727 13.6016 53.9727 14.3906C53.9727 14.9531 53.8516 15.4688 53.6094 15.9375C53.3672 16.3984 53.0156 16.8008 52.5547 17.1445C52.0938 17.4883 51.543 17.7578 50.9023 17.9531C50.2617 18.1406 49.5391 18.2344 48.7344 18.2344C47.5703 18.2344 46.5859 18.0273 45.7812 17.6133C44.9766 17.1914 44.3672 16.6602 43.9531 16.0195C43.5391 15.3711 43.332 14.6992 43.332 14.0039H46.2969C46.3203 14.4961 46.4531 14.8906 46.6953 15.1875C46.9375 15.4844 47.2422 15.6992 47.6094 15.832C47.9844 15.957 48.3789 16.0195 48.793 16.0195C49.2617 16.0195 49.6562 15.957 49.9766 15.832C50.2969 15.6992 50.5391 15.5234 50.7031 15.3047C50.8672 15.0781 50.9492 14.8203 50.9492 14.5312ZM59.4102 7.92188V18H56.3164V5.32031H59.2344L59.4102 7.92188ZM58.9531 11.2031H58.0039C58.0039 10.3203 58.1094 9.50781 58.3203 8.76562C58.5391 8.02344 58.8594 7.37891 59.2812 6.83203C59.7031 6.27734 60.2227 5.84766 60.8398 5.54297C61.4648 5.23828 62.1875 5.08594 63.0078 5.08594C63.5781 5.08594 64.1016 5.17188 64.5781 5.34375C65.0547 5.50781 65.4648 5.76953 65.8086 6.12891C66.1602 6.48047 66.4297 6.94141 66.6172 7.51172C66.8047 8.07422 66.8984 8.75 66.8984 9.53906V18H63.8047V9.85547C63.8047 9.26172 63.7188 8.79688 63.5469 8.46094C63.3828 8.125 63.1445 7.89062 62.832 7.75781C62.5195 7.61719 62.1445 7.54688 61.707 7.54688C61.2227 7.54688 60.8047 7.64453 60.4531 7.83984C60.1094 8.02734 59.8242 8.28906 59.5977 8.625C59.3789 8.96094 59.2148 9.34766 59.1055 9.78516C59.0039 10.2227 58.9531 10.6953 58.9531 11.2031ZM66.6641 10.6289L65.3867 10.8633C65.3945 10.0664 65.5039 9.32031 65.7148 8.625C65.9258 7.92188 66.2344 7.30859 66.6406 6.78516C67.0547 6.25391 67.5664 5.83984 68.1758 5.54297C68.793 5.23828 69.5039 5.08594 70.3086 5.08594C70.9336 5.08594 71.4961 5.17578 71.9961 5.35547C72.5039 5.52734 72.9375 5.80469 73.2969 6.1875C73.6562 6.5625 73.9297 7.05078 74.1172 7.65234C74.3125 8.25391 74.4102 8.98828 74.4102 9.85547V18H71.293V9.84375C71.293 9.22656 71.207 8.75391 71.0352 8.42578C70.8711 8.09766 70.6328 7.87109 70.3203 7.74609C70.0078 7.61328 69.6406 7.54688 69.2188 7.54688C68.7891 7.54688 68.4141 7.62891 68.0938 7.79297C67.7812 7.94922 67.5156 8.16797 67.2969 8.44922C67.0859 8.73047 66.9258 9.05859 66.8164 9.43359C66.7148 9.80078 66.6641 10.1992 66.6641 10.6289ZM82.8828 18.2344C81.9219 18.2344 81.0586 18.0781 80.293 17.7656C79.5273 17.4531 78.875 17.0195 78.3359 16.4648C77.8047 15.9023 77.3945 15.25 77.1055 14.5078C76.8242 13.7578 76.6836 12.9531 76.6836 12.0938V11.625C76.6836 10.6484 76.8242 9.76172 77.1055 8.96484C77.3867 8.16016 77.7852 7.46875 78.3008 6.89062C78.8164 6.3125 79.4336 5.86719 80.1523 5.55469C80.8711 5.24219 81.6641 5.08594 82.5312 5.08594C83.4297 5.08594 84.2227 5.23828 84.9102 5.54297C85.5977 5.83984 86.1719 6.26172 86.6328 6.80859C87.0938 7.35547 87.4414 8.01172 87.6758 8.77734C87.9102 9.53516 88.0273 10.375 88.0273 11.2969V12.5977H78.0898V10.4648H84.9805V10.2305C84.9648 9.73828 84.8711 9.28906 84.6992 8.88281C84.5273 8.46875 84.2617 8.14062 83.9023 7.89844C83.543 7.64844 83.0781 7.52344 82.5078 7.52344C82.0469 7.52344 81.6445 7.625 81.3008 7.82812C80.9648 8.02344 80.6836 8.30469 80.457 8.67188C80.2383 9.03125 80.0742 9.46094 79.9648 9.96094C79.8555 10.4609 79.8008 11.0156 79.8008 11.625V12.0938C79.8008 12.625 79.8711 13.1172 80.0117 13.5703C80.1602 14.0234 80.375 14.418 80.6562 14.7539C80.9453 15.082 81.2891 15.3398 81.6875 15.5273C82.0938 15.707 82.5547 15.7969 83.0703 15.7969C83.7188 15.7969 84.3047 15.6719 84.8281 15.4219C85.3594 15.1641 85.8203 14.7852 86.2109 14.2852L87.7695 15.9023C87.5039 16.293 87.1445 16.668 86.6914 17.0273C86.2461 17.3867 85.707 17.6797 85.0742 17.9062C84.4414 18.125 83.7109 18.2344 82.8828 18.2344Z" fill="#676767"/>
</svg>
