<svg width="52" height="94" viewBox="0 0 52 94" fill="none" xmlns="http://www.w3.org/2000/svg">
<ellipse cx="29.9071" cy="21.8703" rx="2.5" ry="2.62469" transform="rotate(14.4844 29.9071 21.8703)" fill="#706FE5"/>
<ellipse cx="18.9557" cy="64.2631" rx="2.5" ry="2.62469" transform="rotate(14.4844 18.9557 64.2631)" fill="#706FE5"/>
<ellipse cx="24.4315" cy="43.0666" rx="2.5" ry="2.62469" transform="rotate(14.4844 24.4315 43.0666)" fill="#706FE5"/>
<ellipse cx="13.4804" cy="85.4591" rx="2.5" ry="2.62469" transform="rotate(14.4844 13.4804 85.4591)" fill="#706FE5"/>
<ellipse cx="11.8063" cy="17.1944" rx="2.5" ry="2.62469" transform="rotate(14.4844 11.8063 17.1944)" fill="#706FE5"/>
<ellipse cx="0.855125" cy="59.5871" rx="2.5" ry="2.62469" transform="rotate(14.4844 0.855125 59.5871)" fill="#706FE5"/>
<ellipse cx="48.0077" cy="26.5462" rx="2.5" ry="2.62469" transform="rotate(14.4844 48.0077 26.5462)" fill="#706FE5"/>
<ellipse cx="37.0565" cy="68.939" rx="2.5" ry="2.62469" transform="rotate(14.4844 37.0565 68.939)" fill="#706FE5"/>
<ellipse cx="6.33071" cy="38.3906" rx="2.5" ry="2.62469" transform="rotate(14.4844 6.33071 38.3906)" fill="#706FE5"/>
<ellipse cx="42.5324" cy="47.7425" rx="2.5" ry="2.62469" transform="rotate(14.4844 42.5324 47.7425)" fill="#706FE5"/>
<ellipse cx="31.5812" cy="90.135" rx="2.5" ry="2.62469" transform="rotate(14.4844 31.5812 90.135)" fill="#706FE5"/>
</svg>
